<svg xmlns="http://www.w3.org/2000/svg" viewBox="0 -0.5 8 8" shape-rendering="crispEdges">
<metadata>Made with Pixels to Svg https://codepen.io/shshaw/pen/XbxvNj</metadata>
<path stroke="#ebebea" d="M3 0h1M2 2h1" />
<path stroke="#eaeaeb" d="M4 0h1M6 3h1" />
<path stroke="#b2b3b2" d="M2 1h1M1 2h1M0 3h1M5 5h1M6 6h1" />
<path stroke="#ebeaeb" d="M3 1h1M4 4h1" />
<path stroke="#ebeaea" d="M4 1h1M2 3h1" />
<path stroke="#b3b2b3" d="M5 1h1M3 6h1" />
<path stroke="#93d2ff" d="M3 2h1" />
<path stroke="#92d2ff" d="M4 2h1" />
<path stroke="#eaebea" d="M5 2h1M5 3h1M1 4h1" />
<path stroke="#b3b2b2" d="M6 2h1M7 3h1" />
<path stroke="#ebebeb" d="M1 3h1M6 4h1" />
<path stroke="#797979" d="M3 3h1" />
<path stroke="#797879" d="M4 3h1M7 5h1" />
<path stroke="#b2b3b3" d="M0 4h1M6 5h1" />
<path stroke="#eaebeb" d="M2 4h2M5 4h1" />
<path stroke="#b2b2b2" d="M7 4h1M1 5h2M1 6h1" />
<path stroke="#787879" d="M0 5h1M7 6h1" />
<path stroke="#787878" d="M3 5h1" />
<path stroke="#797878" d="M4 5h1" />
<path stroke="#797978" d="M0 6h1M7 7h1" />
<path stroke="#b3b3b3" d="M4 6h1" />
<path stroke="#787978" d="M0 7h1" />
</svg>